<?xml version="1.0" encoding="utf-8"?>
<!-- Generator: Adobe Illustrator 16.0.3, SVG Export Plug-In . SVG Version: 6.00 Build 0)  -->
<!DOCTYPE svg PUBLIC "-//W3C//DTD SVG 1.1//EN" "http://www.w3.org/Graphics/SVG/1.1/DTD/svg11.dtd">
<svg version="1.1" id="Capa_1" xmlns="http://www.w3.org/2000/svg" xmlns:xlink="http://www.w3.org/1999/xlink" x="0px" y="0px"
	 width="192px" height="192px" viewBox="0 0 192 192" enable-background="new 0 0 192 192" xml:space="preserve">
<g transform="translate(0,-952.36218)">
	<path d="M101.105,992.324c-12.383,0-22.935,8.08-26.741,19.207c-4.089-4.457-9.93-7.301-16.417-7.301
		c-12.276,0-22.323,10.047-22.323,22.323c0,5.713,2.203,10.923,5.767,14.882h-7.255c-2.466,0-4.464,1.999-4.465,4.464v53.575
		c0,2.466,1.999,4.465,4.465,4.465h12.185c2.466,0.035,4.493-1.936,4.528-4.401s-1.936-4.493-4.401-4.527
		c-0.042-0.001-0.084-0.001-0.126,0h-7.72v-44.646h86.315v44.646h-63.76c-2.466-0.035-4.493,1.936-4.528,4.401
		c-0.035,2.466,1.936,4.492,4.401,4.527c0.042,0.001,0.084,0.001,0.126,0h68.225c2.467,0,4.465-1.999,4.465-4.465v-6.604
		l23.254,12.045c2.191,1.13,4.885,0.269,6.014-1.923c0.324-0.628,0.494-1.323,0.496-2.03v-56.552
		c0.002-2.466-1.996-4.466-4.463-4.467c-0.047,0-0.094,0.001-0.141,0.002c-0.666,0.026-1.316,0.201-1.906,0.512l-23.254,12.044
		v-6.604c0.012-2.295-1.717-4.225-4-4.464c-0.154-0.008-0.309-0.008-0.465,0h-9.254c5.654-5.177,9.254-12.602,9.254-20.834
		C129.381,1005.037,116.668,992.324,101.105,992.324z M101.105,1001.254c10.738,0,19.346,8.608,19.346,19.347
		c0,10.737-8.607,19.346-19.346,19.346c-10.738,0-19.347-8.609-19.347-19.346C81.759,1009.862,90.368,1001.254,101.105,1001.254z
		 M57.947,1013.159c7.45,0,13.394,5.944,13.394,13.394c0,7.45-5.944,13.394-13.394,13.394c-7.45,0-13.394-5.944-13.394-13.394
		C44.554,1019.103,50.498,1013.159,57.947,1013.159z M77.852,1036.644c1.217,1.759,2.659,3.351,4.232,4.791h-7.581
		C75.813,1039.981,76.957,1038.402,77.852,1036.644z M154.682,1051.76v41.855l-20.836-10.79v-20.276L154.682,1051.76z"/>
</g>
</svg>
