<?xml version="1.0" encoding="utf-8"?>
<!-- Generator: Adobe Illustrator 16.0.3, SVG Export Plug-In . SVG Version: 6.00 Build 0)  -->
<!DOCTYPE svg PUBLIC "-//W3C//DTD SVG 1.1//EN" "http://www.w3.org/Graphics/SVG/1.1/DTD/svg11.dtd">
<svg version="1.1" id="Capa_1" xmlns="http://www.w3.org/2000/svg" xmlns:xlink="http://www.w3.org/1999/xlink" x="0px" y="0px"
	 width="192px" height="192px" viewBox="0 0 192 192" enable-background="new 0 0 192 192" xml:space="preserve">
<g>
	<path stroke="#000000" stroke-width="7" d="M93.85,144.198v20.938H71.707c-3.652,0.057-3.68,5.518,0,5.58h49.867
		c3.652-0.057,3.681-5.518,0-5.58H99.431v-20.938c26.92-1.357,48.391-22.058,48.391-47.384v-23.77c0-1.541-1.248-2.791-2.79-2.791
		s-2.79,1.25-2.79,2.791v9.287h-8.229v-5.1c0-1.541-1.248-2.791-2.791-2.791h-5.736V51.195c0-15.904-12.938-28.842-28.844-28.842
		c-15.906,0-28.844,12.938-28.844,28.842v23.246h-5.736c-1.542,0-2.79,1.25-2.79,2.791v5.1h-8.229v-9.287
		c-0.058-3.659-5.52-3.674-5.581,0v23.77C45.46,122.141,66.931,142.841,93.85,144.198z M73.377,65.904h9.845
		c1.542,0,2.791-1.25,2.791-2.791s-1.248-2.791-2.791-2.791h-9.845v-9.127c0-0.13,0.018-0.256,0.02-0.387h9.826
		c1.542,0,2.791-1.25,2.791-2.791s-1.248-2.791-2.791-2.791h-9.04c6.307-22.921,38.618-22.906,44.917,0h-9.041
		c-1.543,0-2.791,1.25-2.791,2.791s1.248,2.791,2.791,2.791h9.826c0.002,0.13,0.019,0.256,0.019,0.387v9.127h-9.845
		c-1.543,0-2.791,1.25-2.791,2.791s1.248,2.791,2.791,2.791h9.845v8.537H73.377V65.904z M64.851,80.022h63.58v10.201h-63.58V80.022z
		 M119.903,95.803v4.253c0,12.827-10.436,23.262-23.263,23.262c-12.827,0-23.263-10.435-23.263-23.262v-4.253H119.903z
		 M51.041,87.912h8.229v5.101c0,1.541,1.248,2.791,2.79,2.791h5.736c-2.266,43.976,59.965,43.951,57.688,0h5.736
		c1.543,0,2.791-1.25,2.791-2.791v-5.101h8.229v8.903c0,23.123-20.457,41.935-45.601,41.935c-25.143,0-45.6-18.812-45.6-41.935
		V87.912z"/>
</g>
</svg>
