<?xml version="1.0" encoding="utf-8"?>
<!-- Generator: Adobe Illustrator 16.0.3, SVG Export Plug-In . SVG Version: 6.00 Build 0)  -->
<!DOCTYPE svg PUBLIC "-//W3C//DTD SVG 1.1//EN" "http://www.w3.org/Graphics/SVG/1.1/DTD/svg11.dtd">
<svg version="1.1" id="Layer_1" xmlns="http://www.w3.org/2000/svg" xmlns:xlink="http://www.w3.org/1999/xlink" x="0px" y="0px"
	 width="192px" height="192px" viewBox="0 0 192 192" enable-background="new 0 0 192 192" xml:space="preserve">
<path fill="none" d="M0,0h192v192H0V0z"/>
<path d="M105.961,152.668H89.219c-5.581,0-9.999-4.418-9.999-9.999v-22.09c0-3.256,1.628-6.977,4.186-9.069l10.464-11.394
	c1.86-2.093,5.581-2.093,7.674,0l11.162,12.092c0.465,0.232,0.697,0.697,0.93,1.162c1.627,2.093,2.325,4.65,2.325,7.209v22.09
	C115.96,148.25,111.541,152.668,105.961,152.668z"/>
<path d="M97.822,103.604L86.894,115.23c-1.628,1.396-2.791,3.721-2.791,5.581v22.09c0,2.791,2.325,5.116,5.116,5.116h16.742
	c2.791,0,5.115-2.325,5.115-5.116v-22.09c0-1.628-0.697-3.256-1.859-4.65c0,0,0,0,0-0.233L97.822,103.604z"/>
<path fill="#FFFFFF" stroke="#FFFFFF" stroke-miterlimit="10" d="M98.087,103.604L87.158,115.23
	c-1.628,1.396-2.791,3.721-2.791,5.581v22.09c0,2.791,2.325,5.116,5.116,5.116h16.742c2.791,0,5.115-2.325,5.115-5.116v-22.09
	c0-1.628-0.697-3.256-1.859-4.65c0,0,0,0,0-0.233L98.087,103.604z"/>
<path d="M158.65,88.236v16.742c0,5.58-4.418,9.999-9.999,9.999h-22.09c-3.256,0-6.977-1.628-9.069-4.186l-11.394-10.464
	c-2.093-1.86-2.093-5.581,0-7.674l12.092-11.162c0.232-0.465,0.697-0.697,1.162-0.93c2.093-1.627,4.65-2.325,7.209-2.325h22.09
	C154.232,78.237,158.65,82.656,158.65,88.236z"/>
<path d="M109.587,96.375l11.626,10.929c1.396,1.628,3.721,2.79,5.581,2.79h22.09c2.791,0,5.116-2.324,5.116-5.115V88.236
	c0-2.791-2.325-5.115-5.116-5.115h-22.09c-1.628,0-3.256,0.697-4.65,1.859c0,0,0,0-0.233,0L109.587,96.375z"/>
<path fill="#FFFFFF" stroke="#FFFFFF" stroke-miterlimit="10" d="M109.587,96.11l11.626,10.929c1.396,1.628,3.721,2.791,5.581,2.791
	h22.09c2.791,0,5.116-2.326,5.116-5.116V87.972c0-2.791-2.325-5.115-5.116-5.115h-22.09c-1.628,0-3.256,0.697-4.65,1.859
	c0,0,0,0-0.233,0L109.587,96.11z"/>
<path d="M45.528,78.237h22.09c2.559,0,5.116,0.698,7.209,2.325c0.465,0.232,0.93,0.465,1.162,0.93l12.092,11.162
	c2.093,2.093,2.093,5.813,0,7.674l-11.394,10.464c-2.093,2.558-5.813,4.186-9.069,4.186h-22.09c-5.581,0-9.999-4.418-9.999-9.999
	V88.236C35.529,82.656,39.947,78.237,45.528,78.237z"/>
<path d="M72.27,84.98c-0.233,0-0.233,0-0.233,0c-1.395-1.162-3.022-1.859-4.65-1.859h-22.09c-2.791,0-5.116,2.324-5.116,5.115
	v16.742c0,2.791,2.325,5.116,5.116,5.116h22.09c1.86,0,4.186-1.163,5.581-2.791l11.626-10.929L72.27,84.98z"/>
<path fill="#FFFFFF" stroke="#FFFFFF" stroke-miterlimit="10" d="M72.27,84.716c-0.233,0-0.233,0-0.233,0
	c-1.395-1.162-3.022-1.859-4.65-1.859h-22.09c-2.791,0-5.116,2.324-5.116,5.115v16.742c0,2.791,2.325,5.116,5.116,5.116h22.09
	c1.86,0,4.186-1.163,5.581-2.791L84.593,96.11L72.27,84.716z"/>
<path d="M88.219,40.547h16.742c5.581,0,9.999,4.418,9.999,9.999v22.09c0,3.256-1.628,6.977-4.186,9.069l-10.464,11.394
	c-1.86,2.093-5.581,2.093-7.674,0L81.475,81.007c-0.465-0.232-0.697-0.697-0.93-1.162c-1.627-2.093-2.325-4.65-2.325-7.209v-22.09
	C78.22,44.965,82.639,40.547,88.219,40.547z"/>
<path d="M96.357,89.61l10.929-11.626c1.628-1.396,2.791-3.721,2.791-5.581v-22.09c0-2.791-2.325-5.116-5.116-5.116H88.219
	c-2.791,0-5.115,2.325-5.115,5.116v22.09c0,1.628,0.697,3.256,1.859,4.65c0,0,0,0,0,0.233L96.357,89.61z"/>
<path fill="#FFFFFF" stroke="#FFFFFF" stroke-miterlimit="10" d="M96.093,89.61l10.929-11.626c1.628-1.396,2.791-3.721,2.791-5.581
	v-22.09c0-2.791-2.325-5.116-5.116-5.116H87.954c-2.791,0-5.115,2.325-5.115,5.116v22.09c0,1.628,0.697,3.256,1.859,4.65
	c0,0,0,0,0,0.233L96.093,89.61z"/>
</svg>
