<?xml version="1.0" encoding="utf-8"?>
<!-- Generator: Adobe Illustrator 16.0.3, SVG Export Plug-In . SVG Version: 6.00 Build 0)  -->
<!DOCTYPE svg PUBLIC "-//W3C//DTD SVG 1.1//EN" "http://www.w3.org/Graphics/SVG/1.1/DTD/svg11.dtd">
<svg version="1.1" id="Capa_1" xmlns="http://www.w3.org/2000/svg" xmlns:xlink="http://www.w3.org/1999/xlink" x="0px" y="0px"
	 width="192px" height="192px" viewBox="0 0 192 192" enable-background="new 0 0 192 192" xml:space="preserve">
<g>
	<path d="M157.446,76.88c2.751,0,5.251,1.125,7.059,2.934c1.809,1.808,2.934,4.309,2.934,7.059v45.053
		c0,2.745-1.125,5.246-2.942,7.054c-1.808,1.805-4.304,2.93-7.045,2.93H64.502c-2.75,0-5.25-1.125-7.059-2.934
		s-2.934-4.309-2.934-7.055v-13.692l-24.113,15.246c-1.385,0.876-3.219,0.456-4.09-0.929c-0.309-0.49-0.455-1.04-0.465-1.58V87.823
		c0-1.647,1.336-2.979,2.979-2.979c0.674,0,1.295,0.224,1.791,0.599l23.902,15.113V86.867c0-2.741,1.125-5.237,2.943-7.059
		c1.813-1.808,4.303-2.933,7.045-2.933h66.661v-6.058c0-1.84-0.755-3.514-1.964-4.724c-1.21-1.21-2.885-1.965-4.724-1.965h-13.492
		c-0.491,1.563-1.354,2.96-2.479,4.085c-1.808,1.809-4.309,2.934-7.059,2.934H83.025H74.02c-2.75,0-5.25-1.125-7.059-2.934
		c-1.807-1.808-2.932-4.304-2.932-7.059c0-2.75,1.125-5.25,2.932-7.059c1.809-1.808,4.309-2.933,7.059-2.933h9.006h18.421
		c2.75,0,5.251,1.125,7.059,2.933c1.13,1.125,1.991,2.523,2.479,4.081h13.492c3.482,0,6.647,1.42,8.934,3.706
		c2.285,2.286,3.71,5.452,3.71,8.934v6.059h20.332L157.446,76.88z M80.057,57.115h-6.031c-1.104,0-2.117,0.455-2.85,1.188
		s-1.188,1.746-1.188,2.853c0,1.107,0.455,2.116,1.188,2.849s1.742,1.188,2.85,1.188h6.031V57.115L80.057,57.115z M101.451,65.191
		c1.107,0,2.116-0.455,2.849-1.188c0.731-0.732,1.188-1.746,1.188-2.853c0-1.103-0.456-2.116-1.188-2.849
		c-0.732-0.732-1.741-1.188-2.849-1.188H86.008v8.076H101.451z M149.495,93.328c-1.647,0-2.978-1.335-2.978-2.979
		c0-1.647,1.335-2.978,2.978-2.978h4.92c1.647,0,2.978,1.335,2.978,2.978c0,1.647-1.335,2.979-2.978,2.979H149.495z M92.039,112.053
		c-0.504-0.25-0.945-0.647-1.25-1.17c-0.82-1.42-0.34-3.236,1.08-4.059l28.267-16.322c0.469-0.317,1.035-0.5,1.647-0.5
		c1.647,0,2.978,1.335,2.978,2.978l-0.009,32.824c0.005,0.505-0.125,1.019-0.397,1.487c-0.821,1.419-2.639,1.901-4.059,1.08
		l-28.257-16.323V112.053z M109.05,115.021l9.755,5.63V98.123L99.29,109.392l9.765,5.635L109.05,115.021z M157.446,82.832
		c-30.984,0-61.964,0-92.948,0c-1.107,0-2.127,0.456-2.854,1.183c-0.729,0.728-1.184,1.741-1.184,2.853v19.078v6.893v0.054v19.028
		c0,1.104,0.455,2.112,1.188,2.844c0.732,0.732,1.742,1.188,2.85,1.188h92.948c1.112,0,2.125-0.456,2.849-1.188
		c0.732-0.731,1.188-1.74,1.188-2.848V86.863c0-1.103-0.455-2.116-1.188-2.849s-1.741-1.188-2.849-1.188V82.832z M54.51,107.574
		L31.789,93.212v32.359l22.721-14.362v-3.639V107.574z"/>
</g>
</svg>
